<mxfile host="app.diagrams.net" modified="2023-10-02T02:53:01.004Z" agent="Mozilla/5.0 (Windows NT 10.0; Win64; x64; rv:109.0) Gecko/20100101 Firefox/118.0" etag="ws6RiQwG_-GK-I8K7d_z" version="22.0.0" type="github">
  <diagram name="Page-1" id="XT7bn8gTdWA8QPqIjjBi">
    <mxGraphModel dx="1434" dy="782" grid="1" gridSize="10" guides="1" tooltips="1" connect="1" arrows="1" fold="1" page="1" pageScale="1" pageWidth="850" pageHeight="1100" math="0" shadow="0">
      <root>
        <mxCell id="0" />
        <mxCell id="1" parent="0" />
        <mxCell id="_YnTIn_lLOJTzUy0rTk--182" value="" style="edgeStyle=orthogonalEdgeStyle;rounded=0;orthogonalLoop=1;jettySize=auto;html=1;" edge="1" parent="1" source="82Lhvo7nVB6kF26-BJnR-15" target="_YnTIn_lLOJTzUy0rTk--153">
          <mxGeometry relative="1" as="geometry" />
        </mxCell>
        <mxCell id="_YnTIn_lLOJTzUy0rTk--167" value="" style="endArrow=none;dashed=1;html=1;rounded=0;entryX=0.5;entryY=1;entryDx=0;entryDy=0;exitX=0.5;exitY=0;exitDx=0;exitDy=0;" edge="1" parent="1" source="82Lhvo7nVB6kF26-BJnR-76" target="_YnTIn_lLOJTzUy0rTk--166">
          <mxGeometry width="50" height="50" relative="1" as="geometry">
            <mxPoint x="710" y="480" as="sourcePoint" />
            <mxPoint x="705" y="70" as="targetPoint" />
          </mxGeometry>
        </mxCell>
        <mxCell id="_YnTIn_lLOJTzUy0rTk--154" value="" style="endArrow=none;dashed=1;html=1;rounded=0;exitX=0.75;exitY=0;exitDx=0;exitDy=0;" edge="1" parent="1" source="82Lhvo7nVB6kF26-BJnR-74" target="_YnTIn_lLOJTzUy0rTk--153">
          <mxGeometry width="50" height="50" relative="1" as="geometry">
            <mxPoint x="418" y="440" as="sourcePoint" />
            <mxPoint x="420" y="130" as="targetPoint" />
          </mxGeometry>
        </mxCell>
        <mxCell id="_YnTIn_lLOJTzUy0rTk--174" value="" style="endArrow=none;dashed=1;html=1;rounded=0;entryX=0.75;entryY=1;entryDx=0;entryDy=0;" edge="1" parent="1" target="82Lhvo7nVB6kF26-BJnR-76">
          <mxGeometry width="50" height="50" relative="1" as="geometry">
            <mxPoint x="713" y="990" as="sourcePoint" />
            <mxPoint x="280" y="780" as="targetPoint" />
          </mxGeometry>
        </mxCell>
        <mxCell id="_YnTIn_lLOJTzUy0rTk--14" value="" style="endArrow=none;dashed=1;html=1;rounded=0;entryX=0.5;entryY=1;entryDx=0;entryDy=0;" edge="1" parent="1">
          <mxGeometry width="50" height="50" relative="1" as="geometry">
            <mxPoint x="561" y="990" as="sourcePoint" />
            <mxPoint x="561" y="70" as="targetPoint" />
          </mxGeometry>
        </mxCell>
        <mxCell id="_YnTIn_lLOJTzUy0rTk--170" value="" style="endArrow=none;dashed=1;html=1;rounded=0;entryX=0.5;entryY=1;entryDx=0;entryDy=0;" edge="1" parent="1" target="82Lhvo7nVB6kF26-BJnR-74">
          <mxGeometry width="50" height="50" relative="1" as="geometry">
            <mxPoint x="415" y="990" as="sourcePoint" />
            <mxPoint x="280" y="690" as="targetPoint" />
          </mxGeometry>
        </mxCell>
        <mxCell id="82Lhvo7nVB6kF26-BJnR-1" value="&lt;div&gt;&lt;font color=&quot;#ffffff&quot;&gt;&amp;lt;&amp;lt;actor&amp;gt;&amp;gt;&lt;/font&gt;&lt;/div&gt;&lt;div&gt;&lt;font color=&quot;#ffffff&quot;&gt;p: Patient&lt;/font&gt;&lt;/div&gt;" style="rounded=0;whiteSpace=wrap;html=1;fillColor=#000000;" parent="1" vertex="1">
          <mxGeometry x="40" y="30" width="100" height="40" as="geometry" />
        </mxCell>
        <mxCell id="82Lhvo7nVB6kF26-BJnR-2" value="&lt;div&gt;&lt;font color=&quot;#ffffff&quot;&gt;ui:&lt;br&gt;&lt;/font&gt;&lt;/div&gt;&lt;div&gt;&lt;font color=&quot;#ffffff&quot;&gt;ERBookingUI&lt;/font&gt;&lt;/div&gt;" style="rounded=0;whiteSpace=wrap;html=1;fillColor=#000000;" parent="1" vertex="1">
          <mxGeometry x="200" y="30" width="100" height="40" as="geometry" />
        </mxCell>
        <mxCell id="82Lhvo7nVB6kF26-BJnR-3" value="&lt;div&gt;&lt;font color=&quot;#ffffff&quot;&gt;&amp;lt;&amp;lt;actor&amp;gt;&amp;gt;&lt;/font&gt;&lt;/div&gt;&lt;div&gt;&lt;font color=&quot;#ffffff&quot;&gt;Booking Service&lt;br&gt;&lt;/font&gt;&lt;/div&gt;" style="rounded=0;whiteSpace=wrap;html=1;fillColor=#000000;" parent="1" vertex="1">
          <mxGeometry x="354.5" y="30" width="131" height="40" as="geometry" />
        </mxCell>
        <mxCell id="82Lhvo7nVB6kF26-BJnR-6" value="&lt;div style=&quot;font-size: 11px;&quot;&gt;&lt;font style=&quot;font-size: 11px;&quot; color=&quot;#ffffff&quot;&gt;NotificationSvc&lt;/font&gt;&lt;/div&gt;&lt;div style=&quot;font-size: 11px;&quot;&gt;&lt;font style=&quot;font-size: 11px;&quot; color=&quot;#ffffff&quot;&gt;noti: NotificationService&lt;/font&gt;&lt;/div&gt;" style="rounded=0;whiteSpace=wrap;html=1;fillColor=#000000;" parent="1" vertex="1">
          <mxGeometry x="650" y="30" width="110" height="40" as="geometry" />
        </mxCell>
        <mxCell id="82Lhvo7nVB6kF26-BJnR-8" value="" style="rounded=0;whiteSpace=wrap;html=1;" parent="1" vertex="1">
          <mxGeometry x="85" y="70" width="10" height="920" as="geometry" />
        </mxCell>
        <mxCell id="82Lhvo7nVB6kF26-BJnR-14" value="" style="rounded=0;whiteSpace=wrap;html=1;" parent="1" vertex="1">
          <mxGeometry x="245" y="70" width="10" height="80" as="geometry" />
        </mxCell>
        <mxCell id="82Lhvo7nVB6kF26-BJnR-15" value="" style="rounded=0;whiteSpace=wrap;html=1;" parent="1" vertex="1">
          <mxGeometry x="415" y="70" width="10" height="60" as="geometry" />
        </mxCell>
        <mxCell id="82Lhvo7nVB6kF26-BJnR-17" value="" style="endArrow=classic;html=1;rounded=0;" parent="1" edge="1">
          <mxGeometry width="50" height="50" relative="1" as="geometry">
            <mxPoint x="260" y="100" as="sourcePoint" />
            <mxPoint x="410" y="100" as="targetPoint" />
          </mxGeometry>
        </mxCell>
        <mxCell id="_YnTIn_lLOJTzUy0rTk--143" value="bookingRequest(patient: p)" style="edgeLabel;html=1;align=center;verticalAlign=middle;resizable=0;points=[];labelBorderColor=default;" vertex="1" connectable="0" parent="82Lhvo7nVB6kF26-BJnR-17">
          <mxGeometry x="-0.2533" y="1" relative="1" as="geometry">
            <mxPoint as="offset" />
          </mxGeometry>
        </mxCell>
        <mxCell id="82Lhvo7nVB6kF26-BJnR-28" value="" style="endArrow=none;dashed=1;html=1;rounded=0;exitX=0.75;exitY=0;exitDx=0;exitDy=0;" parent="1" edge="1" source="_YnTIn_lLOJTzUy0rTk--153">
          <mxGeometry width="50" height="50" relative="1" as="geometry">
            <mxPoint x="415" y="347.5" as="sourcePoint" />
            <mxPoint x="420" y="130" as="targetPoint" />
          </mxGeometry>
        </mxCell>
        <mxCell id="82Lhvo7nVB6kF26-BJnR-37" value="" style="endArrow=classic;html=1;rounded=0;exitX=0.75;exitY=0;exitDx=0;exitDy=0;entryX=0;entryY=0;entryDx=0;entryDy=0;" parent="1" edge="1">
          <mxGeometry width="50" height="50" relative="1" as="geometry">
            <mxPoint x="95" y="90" as="sourcePoint" />
            <mxPoint x="247.5" y="90" as="targetPoint" />
          </mxGeometry>
        </mxCell>
        <mxCell id="82Lhvo7nVB6kF26-BJnR-38" value="&lt;font&gt;bookERButton()&lt;/font&gt;" style="edgeLabel;html=1;align=center;verticalAlign=middle;resizable=0;points=[];labelBackgroundColor=#FFFFFF;fontColor=#000000;labelBorderColor=default;" parent="82Lhvo7nVB6kF26-BJnR-37" vertex="1" connectable="0">
          <mxGeometry x="-0.1869" relative="1" as="geometry">
            <mxPoint as="offset" />
          </mxGeometry>
        </mxCell>
        <mxCell id="82Lhvo7nVB6kF26-BJnR-51" value="" style="endArrow=none;dashed=1;html=1;rounded=0;exitX=0.265;exitY=-0.014;exitDx=0;exitDy=0;exitPerimeter=0;" parent="1" edge="1" source="82Lhvo7nVB6kF26-BJnR-50">
          <mxGeometry width="50" height="50" relative="1" as="geometry">
            <mxPoint x="249.44444444444434" y="220" as="sourcePoint" />
            <mxPoint x="249" y="150" as="targetPoint" />
          </mxGeometry>
        </mxCell>
        <mxCell id="82Lhvo7nVB6kF26-BJnR-71" value="" style="endArrow=none;dashed=1;html=1;rounded=0;entryX=0.267;entryY=0.009;entryDx=0;entryDy=0;entryPerimeter=0;" parent="1" target="82Lhvo7nVB6kF26-BJnR-50" edge="1" source="_YnTIn_lLOJTzUy0rTk--101">
          <mxGeometry width="50" height="50" relative="1" as="geometry">
            <mxPoint x="250" y="1100" as="sourcePoint" />
            <mxPoint x="250" y="410" as="targetPoint" />
          </mxGeometry>
        </mxCell>
        <mxCell id="_YnTIn_lLOJTzUy0rTk--7" value="" style="endArrow=classic;html=1;rounded=0;entryX=1;entryY=0.796;entryDx=0;entryDy=0;entryPerimeter=0;" edge="1" parent="1">
          <mxGeometry width="50" height="50" relative="1" as="geometry">
            <mxPoint x="250" y="670" as="sourcePoint" />
            <mxPoint x="95" y="669.8800000000001" as="targetPoint" />
          </mxGeometry>
        </mxCell>
        <mxCell id="_YnTIn_lLOJTzUy0rTk--8" value="confirmationPrompt()" style="edgeLabel;html=1;align=center;verticalAlign=middle;resizable=0;points=[];labelBorderColor=default;fontSize=10;" vertex="1" connectable="0" parent="_YnTIn_lLOJTzUy0rTk--7">
          <mxGeometry x="0.417" y="-2" relative="1" as="geometry">
            <mxPoint x="33" as="offset" />
          </mxGeometry>
        </mxCell>
        <mxCell id="_YnTIn_lLOJTzUy0rTk--13" value="&lt;div style=&quot;font-size: 11px;&quot;&gt;&lt;font style=&quot;font-size: 11px;&quot; color=&quot;#ffffff&quot;&gt;&amp;lt;&amp;lt;actor&amp;gt;&amp;gt;&lt;/font&gt;&lt;/div&gt;&lt;div style=&quot;font-size: 11px;&quot;&gt;&lt;font style=&quot;font-size: 11px;&quot; color=&quot;#ffffff&quot;&gt;PatientDB: Database&lt;br&gt;&lt;/font&gt;&lt;/div&gt;" style="rounded=0;whiteSpace=wrap;html=1;fillColor=#000000;" vertex="1" parent="1">
          <mxGeometry x="500" y="30" width="120" height="40" as="geometry" />
        </mxCell>
        <mxCell id="_YnTIn_lLOJTzUy0rTk--18" value="&lt;div&gt;&lt;font color=&quot;#ffffff&quot;&gt;&amp;lt;&amp;lt;actor&amp;gt;&amp;gt;&lt;/font&gt;&lt;/div&gt;&lt;div&gt;&lt;font color=&quot;#ffffff&quot;&gt;LHS: Local Health Service&lt;br&gt;&lt;/font&gt;&lt;/div&gt;" style="rounded=0;whiteSpace=wrap;html=1;fillColor=#000000;" vertex="1" parent="1">
          <mxGeometry x="770" y="30" width="100" height="40" as="geometry" />
        </mxCell>
        <mxCell id="_YnTIn_lLOJTzUy0rTk--21" value="" style="endArrow=none;dashed=1;html=1;rounded=0;entryX=0.5;entryY=1;entryDx=0;entryDy=0;" edge="1" parent="1" source="_YnTIn_lLOJTzUy0rTk--155" target="_YnTIn_lLOJTzUy0rTk--18">
          <mxGeometry width="50" height="50" relative="1" as="geometry">
            <mxPoint x="820" y="1100" as="sourcePoint" />
            <mxPoint x="380" y="340" as="targetPoint" />
          </mxGeometry>
        </mxCell>
        <mxCell id="_YnTIn_lLOJTzUy0rTk--26" value="" style="endArrow=none;dashed=1;html=1;rounded=0;entryX=0.5;entryY=1;entryDx=0;entryDy=0;" edge="1" parent="1" source="_YnTIn_lLOJTzUy0rTk--104">
          <mxGeometry width="50" height="50" relative="1" as="geometry">
            <mxPoint x="820" y="1100" as="sourcePoint" />
            <mxPoint x="820" y="320" as="targetPoint" />
          </mxGeometry>
        </mxCell>
        <mxCell id="82Lhvo7nVB6kF26-BJnR-50" value="opt" style="swimlane;whiteSpace=wrap;html=1;fillColor=#ffe6cc;strokeColor=#d79b00;" parent="1" vertex="1">
          <mxGeometry x="11" y="380" width="899" height="220" as="geometry" />
        </mxCell>
        <mxCell id="_YnTIn_lLOJTzUy0rTk--3" value="" style="rounded=0;whiteSpace=wrap;html=1;" vertex="1" parent="82Lhvo7nVB6kF26-BJnR-50">
          <mxGeometry x="235.5" y="270" width="7.5" height="20" as="geometry" />
        </mxCell>
        <mxCell id="_YnTIn_lLOJTzUy0rTk--4" value="" style="endArrow=classic;html=1;rounded=0;" edge="1" parent="82Lhvo7nVB6kF26-BJnR-50">
          <mxGeometry width="50" height="50" relative="1" as="geometry">
            <mxPoint x="90" y="270" as="sourcePoint" />
            <mxPoint x="230" y="270" as="targetPoint" />
          </mxGeometry>
        </mxCell>
        <mxCell id="_YnTIn_lLOJTzUy0rTk--6" value="cancelBookingButton()" style="edgeLabel;html=1;align=center;verticalAlign=middle;resizable=0;points=[];labelBorderColor=default;fontSize=10;" vertex="1" connectable="0" parent="_YnTIn_lLOJTzUy0rTk--4">
          <mxGeometry x="0.1286" y="-1" relative="1" as="geometry">
            <mxPoint x="-10" as="offset" />
          </mxGeometry>
        </mxCell>
        <mxCell id="_YnTIn_lLOJTzUy0rTk--57" value="UC-05.2" style="text;html=1;strokeColor=none;fillColor=none;align=center;verticalAlign=middle;whiteSpace=wrap;rounded=0;" vertex="1" parent="82Lhvo7nVB6kF26-BJnR-50">
          <mxGeometry x="9" y="20" width="60" height="30" as="geometry" />
        </mxCell>
        <mxCell id="_YnTIn_lLOJTzUy0rTk--72" value="" style="endArrow=classic;html=1;rounded=0;exitX=1.2;exitY=0.431;exitDx=0;exitDy=0;exitPerimeter=0;" edge="1" parent="82Lhvo7nVB6kF26-BJnR-50">
          <mxGeometry width="50" height="50" relative="1" as="geometry">
            <mxPoint x="84" y="564" as="sourcePoint" />
            <mxPoint x="239" y="561" as="targetPoint" />
          </mxGeometry>
        </mxCell>
        <mxCell id="_YnTIn_lLOJTzUy0rTk--73" value="cancelConfirmButton()" style="edgeLabel;html=1;align=center;verticalAlign=middle;resizable=0;points=[];labelBorderColor=default;" vertex="1" connectable="0" parent="_YnTIn_lLOJTzUy0rTk--72">
          <mxGeometry x="-0.323" y="-2" relative="1" as="geometry">
            <mxPoint x="19" as="offset" />
          </mxGeometry>
        </mxCell>
        <mxCell id="82Lhvo7nVB6kF26-BJnR-78" value="" style="endArrow=classic;html=1;rounded=0;exitX=-0.2;exitY=0.867;exitDx=0;exitDy=0;exitPerimeter=0;" parent="82Lhvo7nVB6kF26-BJnR-50" source="82Lhvo7nVB6kF26-BJnR-76" edge="1">
          <mxGeometry width="50" height="50" relative="1" as="geometry">
            <mxPoint x="603" y="220" as="sourcePoint" />
            <mxPoint x="83" y="152" as="targetPoint" />
          </mxGeometry>
        </mxCell>
        <mxCell id="82Lhvo7nVB6kF26-BJnR-79" value="sendUserNoti(BookingCancelled:TimeExceeded)" style="edgeLabel;html=1;align=center;verticalAlign=middle;resizable=0;points=[];labelBorderColor=default;" parent="82Lhvo7nVB6kF26-BJnR-78" vertex="1" connectable="0">
          <mxGeometry x="0.5183" y="2" relative="1" as="geometry">
            <mxPoint x="28" as="offset" />
          </mxGeometry>
        </mxCell>
        <mxCell id="82Lhvo7nVB6kF26-BJnR-74" value="" style="rounded=0;whiteSpace=wrap;html=1;" parent="82Lhvo7nVB6kF26-BJnR-50" vertex="1">
          <mxGeometry x="399" y="60" width="10" height="60" as="geometry" />
        </mxCell>
        <mxCell id="_YnTIn_lLOJTzUy0rTk--180" value="" style="rounded=0;whiteSpace=wrap;html=1;" vertex="1" parent="82Lhvo7nVB6kF26-BJnR-50">
          <mxGeometry x="809" y="60" width="10" height="40" as="geometry" />
        </mxCell>
        <mxCell id="_YnTIn_lLOJTzUy0rTk--181" value="bookingTimeExceeded()" style="text;html=1;align=center;verticalAlign=middle;resizable=0;points=[];autosize=1;strokeColor=none;fillColor=none;labelBackgroundColor=default;labelBorderColor=default;" vertex="1" parent="82Lhvo7nVB6kF26-BJnR-50">
          <mxGeometry x="324" y="30" width="160" height="30" as="geometry" />
        </mxCell>
        <mxCell id="_YnTIn_lLOJTzUy0rTk--52" value="" style="rounded=0;whiteSpace=wrap;html=1;" vertex="1" parent="1">
          <mxGeometry x="555" y="100" width="10" height="20" as="geometry" />
        </mxCell>
        <mxCell id="_YnTIn_lLOJTzUy0rTk--59" value="UC-05" style="text;html=1;align=center;verticalAlign=middle;resizable=0;points=[];autosize=1;strokeColor=none;fillColor=none;" vertex="1" parent="1">
          <mxGeometry x="11" y="70" width="60" height="30" as="geometry" />
        </mxCell>
        <mxCell id="_YnTIn_lLOJTzUy0rTk--86" value="" style="endArrow=none;dashed=1;html=1;rounded=0;entryX=0.5;entryY=1;entryDx=0;entryDy=0;" edge="1" parent="1" target="82Lhvo7nVB6kF26-BJnR-76">
          <mxGeometry width="50" height="50" relative="1" as="geometry">
            <mxPoint x="710" y="510" as="sourcePoint" />
            <mxPoint x="710" y="270" as="targetPoint" />
          </mxGeometry>
        </mxCell>
        <mxCell id="82Lhvo7nVB6kF26-BJnR-76" value="" style="rounded=0;whiteSpace=wrap;html=1;" parent="1" vertex="1">
          <mxGeometry x="705" y="480" width="10" height="60" as="geometry" />
        </mxCell>
        <mxCell id="82Lhvo7nVB6kF26-BJnR-75" value="" style="endArrow=classic;html=1;rounded=0;exitX=1;exitY=0.867;exitDx=0;exitDy=0;exitPerimeter=0;entryX=0;entryY=0.25;entryDx=0;entryDy=0;" parent="1" source="82Lhvo7nVB6kF26-BJnR-74" target="82Lhvo7nVB6kF26-BJnR-76" edge="1">
          <mxGeometry width="50" height="50" relative="1" as="geometry">
            <mxPoint x="475" y="500" as="sourcePoint" />
            <mxPoint x="675" y="490" as="targetPoint" />
          </mxGeometry>
        </mxCell>
        <mxCell id="82Lhvo7nVB6kF26-BJnR-77" value="&lt;div&gt;createNotiInstance(RemoveFromQueue)&lt;/div&gt;" style="edgeLabel;html=1;align=center;verticalAlign=middle;resizable=0;points=[];labelBorderColor=default;" parent="82Lhvo7nVB6kF26-BJnR-75" vertex="1" connectable="0">
          <mxGeometry x="-0.3021" y="-1" relative="1" as="geometry">
            <mxPoint x="38" as="offset" />
          </mxGeometry>
        </mxCell>
        <mxCell id="_YnTIn_lLOJTzUy0rTk--90" value="opt" style="swimlane;whiteSpace=wrap;html=1;fillColor=#ffe6cc;strokeColor=#d79b00;" vertex="1" parent="1">
          <mxGeometry x="11" y="600" width="900" height="390" as="geometry" />
        </mxCell>
        <mxCell id="_YnTIn_lLOJTzUy0rTk--58" value="UC-05.1.2" style="text;html=1;align=center;verticalAlign=middle;resizable=0;points=[];autosize=1;strokeColor=none;fillColor=none;" vertex="1" parent="_YnTIn_lLOJTzUy0rTk--90">
          <mxGeometry x="-1" y="20" width="80" height="30" as="geometry" />
        </mxCell>
        <mxCell id="_YnTIn_lLOJTzUy0rTk--92" value="alt" style="swimlane;whiteSpace=wrap;html=1;fillColor=#ffe6cc;strokeColor=#d79b00;" vertex="1" parent="_YnTIn_lLOJTzUy0rTk--90">
          <mxGeometry x="29" y="80" width="871" height="310" as="geometry" />
        </mxCell>
        <mxCell id="_YnTIn_lLOJTzUy0rTk--96" value="" style="rounded=0;whiteSpace=wrap;html=1;labelBackgroundColor=default;labelBorderColor=default;" vertex="1" parent="_YnTIn_lLOJTzUy0rTk--92">
          <mxGeometry x="370" y="90" width="10" height="60" as="geometry" />
        </mxCell>
        <mxCell id="_YnTIn_lLOJTzUy0rTk--103" value="" style="endArrow=classic;html=1;rounded=0;" edge="1" parent="_YnTIn_lLOJTzUy0rTk--92" target="_YnTIn_lLOJTzUy0rTk--104">
          <mxGeometry width="50" height="50" relative="1" as="geometry">
            <mxPoint x="384.76" y="110" as="sourcePoint" />
            <mxPoint x="770" y="110" as="targetPoint" />
          </mxGeometry>
        </mxCell>
        <mxCell id="_YnTIn_lLOJTzUy0rTk--112" value="cancelBookingRequest()" style="edgeLabel;html=1;align=center;verticalAlign=middle;resizable=0;points=[];labelBorderColor=default;" vertex="1" connectable="0" parent="_YnTIn_lLOJTzUy0rTk--103">
          <mxGeometry x="-0.0096" relative="1" as="geometry">
            <mxPoint as="offset" />
          </mxGeometry>
        </mxCell>
        <mxCell id="_YnTIn_lLOJTzUy0rTk--119" value="" style="rounded=0;whiteSpace=wrap;html=1;" vertex="1" parent="_YnTIn_lLOJTzUy0rTk--92">
          <mxGeometry x="670" y="170" width="10" height="20" as="geometry" />
        </mxCell>
        <mxCell id="_YnTIn_lLOJTzUy0rTk--113" value="" style="endArrow=none;dashed=1;html=1;dashPattern=1 3;strokeWidth=2;rounded=0;exitX=1.2;exitY=0.787;exitDx=0;exitDy=0;exitPerimeter=0;" edge="1" parent="_YnTIn_lLOJTzUy0rTk--92">
          <mxGeometry width="50" height="50" relative="1" as="geometry">
            <mxPoint x="57" y="220.61000000000013" as="sourcePoint" />
            <mxPoint x="870" y="220" as="targetPoint" />
          </mxGeometry>
        </mxCell>
        <mxCell id="_YnTIn_lLOJTzUy0rTk--97" value="" style="endArrow=classic;html=1;rounded=0;entryX=0;entryY=0;entryDx=0;entryDy=0;" edge="1" parent="1" target="_YnTIn_lLOJTzUy0rTk--101">
          <mxGeometry width="50" height="50" relative="1" as="geometry">
            <mxPoint x="100" y="740" as="sourcePoint" />
            <mxPoint x="250" y="742" as="targetPoint" />
          </mxGeometry>
        </mxCell>
        <mxCell id="_YnTIn_lLOJTzUy0rTk--98" value="confirmButton()" style="edgeLabel;html=1;align=center;verticalAlign=middle;resizable=0;points=[];labelBorderColor=default;" vertex="1" connectable="0" parent="_YnTIn_lLOJTzUy0rTk--97">
          <mxGeometry x="-0.2667" y="1" relative="1" as="geometry">
            <mxPoint as="offset" />
          </mxGeometry>
        </mxCell>
        <mxCell id="_YnTIn_lLOJTzUy0rTk--99" value="" style="endArrow=classic;html=1;rounded=0;entryX=0;entryY=0;entryDx=0;entryDy=0;" edge="1" parent="1" target="_YnTIn_lLOJTzUy0rTk--96">
          <mxGeometry width="50" height="50" relative="1" as="geometry">
            <mxPoint x="250" y="770" as="sourcePoint" />
            <mxPoint x="360" y="770" as="targetPoint" />
          </mxGeometry>
        </mxCell>
        <mxCell id="_YnTIn_lLOJTzUy0rTk--100" value="cancelBooking()" style="edgeLabel;html=1;align=center;verticalAlign=middle;resizable=0;points=[];labelBorderColor=default;" vertex="1" connectable="0" parent="_YnTIn_lLOJTzUy0rTk--99">
          <mxGeometry x="-0.0375" relative="1" as="geometry">
            <mxPoint as="offset" />
          </mxGeometry>
        </mxCell>
        <mxCell id="_YnTIn_lLOJTzUy0rTk--102" value="" style="endArrow=none;dashed=1;html=1;rounded=0;" edge="1" parent="1" source="_YnTIn_lLOJTzUy0rTk--114">
          <mxGeometry width="50" height="50" relative="1" as="geometry">
            <mxPoint x="250" y="1100" as="sourcePoint" />
            <mxPoint x="250" y="780" as="targetPoint" />
          </mxGeometry>
        </mxCell>
        <mxCell id="_YnTIn_lLOJTzUy0rTk--101" value="" style="rounded=0;whiteSpace=wrap;html=1;" vertex="1" parent="1">
          <mxGeometry x="244" y="740" width="10" height="40" as="geometry" />
        </mxCell>
        <mxCell id="_YnTIn_lLOJTzUy0rTk--104" value="" style="rounded=0;whiteSpace=wrap;html=1;" vertex="1" parent="1">
          <mxGeometry x="815" y="760" width="10" height="60" as="geometry" />
        </mxCell>
        <mxCell id="_YnTIn_lLOJTzUy0rTk--107" value="" style="endArrow=classic;html=1;rounded=0;entryX=1;entryY=0.833;entryDx=0;entryDy=0;entryPerimeter=0;exitX=0;exitY=1;exitDx=0;exitDy=0;" edge="1" parent="1" source="_YnTIn_lLOJTzUy0rTk--104" target="_YnTIn_lLOJTzUy0rTk--96">
          <mxGeometry width="50" height="50" relative="1" as="geometry">
            <mxPoint x="250" y="770" as="sourcePoint" />
            <mxPoint x="300" y="720" as="targetPoint" />
          </mxGeometry>
        </mxCell>
        <mxCell id="_YnTIn_lLOJTzUy0rTk--108" value="confirmCancelRequest()" style="edgeLabel;html=1;align=center;verticalAlign=middle;resizable=0;points=[];labelBorderColor=default;" vertex="1" connectable="0" parent="_YnTIn_lLOJTzUy0rTk--107">
          <mxGeometry x="0.0582" y="-4" relative="1" as="geometry">
            <mxPoint as="offset" />
          </mxGeometry>
        </mxCell>
        <mxCell id="_YnTIn_lLOJTzUy0rTk--115" value="" style="endArrow=none;dashed=1;html=1;rounded=0;" edge="1" parent="1" target="_YnTIn_lLOJTzUy0rTk--114">
          <mxGeometry width="50" height="50" relative="1" as="geometry">
            <mxPoint x="250" y="990" as="sourcePoint" />
            <mxPoint x="250" y="780" as="targetPoint" />
          </mxGeometry>
        </mxCell>
        <mxCell id="_YnTIn_lLOJTzUy0rTk--114" value="" style="rounded=0;whiteSpace=wrap;html=1;" vertex="1" parent="1">
          <mxGeometry x="245" y="810" width="10" height="40" as="geometry" />
        </mxCell>
        <mxCell id="_YnTIn_lLOJTzUy0rTk--116" value="" style="endArrow=classic;html=1;rounded=0;entryX=1;entryY=0.5;entryDx=0;entryDy=0;exitX=0;exitY=1;exitDx=0;exitDy=0;" edge="1" parent="1" source="_YnTIn_lLOJTzUy0rTk--96" target="_YnTIn_lLOJTzUy0rTk--114">
          <mxGeometry width="50" height="50" relative="1" as="geometry">
            <mxPoint x="250" y="770" as="sourcePoint" />
            <mxPoint x="300" y="720" as="targetPoint" />
          </mxGeometry>
        </mxCell>
        <mxCell id="_YnTIn_lLOJTzUy0rTk--117" value="cancelSuccesfull()" style="edgeLabel;html=1;align=center;verticalAlign=middle;resizable=0;points=[];labelBorderColor=default;" vertex="1" connectable="0" parent="_YnTIn_lLOJTzUy0rTk--116">
          <mxGeometry x="0.1484" relative="1" as="geometry">
            <mxPoint as="offset" />
          </mxGeometry>
        </mxCell>
        <mxCell id="_YnTIn_lLOJTzUy0rTk--118" value="" style="endArrow=classic;html=1;rounded=0;exitX=1;exitY=1;exitDx=0;exitDy=0;entryX=0;entryY=0;entryDx=0;entryDy=0;" edge="1" parent="1" source="_YnTIn_lLOJTzUy0rTk--114" target="_YnTIn_lLOJTzUy0rTk--119">
          <mxGeometry width="50" height="50" relative="1" as="geometry">
            <mxPoint x="250" y="950" as="sourcePoint" />
            <mxPoint x="700" y="850" as="targetPoint" />
          </mxGeometry>
        </mxCell>
        <mxCell id="_YnTIn_lLOJTzUy0rTk--120" value="createNotiInstance(cancellationConfirmed)" style="edgeLabel;html=1;align=center;verticalAlign=middle;resizable=0;points=[];labelBorderColor=default;" vertex="1" connectable="0" parent="_YnTIn_lLOJTzUy0rTk--118">
          <mxGeometry x="0.1559" y="4" relative="1" as="geometry">
            <mxPoint as="offset" />
          </mxGeometry>
        </mxCell>
        <mxCell id="_YnTIn_lLOJTzUy0rTk--121" value="" style="endArrow=classic;html=1;rounded=0;exitX=0;exitY=1;exitDx=0;exitDy=0;entryX=1.1;entryY=0.87;entryDx=0;entryDy=0;entryPerimeter=0;" edge="1" parent="1" source="_YnTIn_lLOJTzUy0rTk--119" target="82Lhvo7nVB6kF26-BJnR-8">
          <mxGeometry width="50" height="50" relative="1" as="geometry">
            <mxPoint x="250" y="800" as="sourcePoint" />
            <mxPoint x="300" y="750" as="targetPoint" />
          </mxGeometry>
        </mxCell>
        <mxCell id="_YnTIn_lLOJTzUy0rTk--122" value="sendUserNotification(cancellationConfirmed" style="edgeLabel;html=1;align=center;verticalAlign=middle;resizable=0;points=[];labelBorderColor=default;" vertex="1" connectable="0" parent="_YnTIn_lLOJTzUy0rTk--121">
          <mxGeometry x="0.7626" y="-2" relative="1" as="geometry">
            <mxPoint x="56" as="offset" />
          </mxGeometry>
        </mxCell>
        <mxCell id="_YnTIn_lLOJTzUy0rTk--124" value="" style="rounded=0;whiteSpace=wrap;html=1;" vertex="1" parent="1">
          <mxGeometry x="246.25" y="940" width="10" height="30" as="geometry" />
        </mxCell>
        <mxCell id="_YnTIn_lLOJTzUy0rTk--126" value="" style="endArrow=classic;html=1;rounded=0;entryX=1;entryY=0.975;entryDx=0;entryDy=0;entryPerimeter=0;exitX=0;exitY=1;exitDx=0;exitDy=0;" edge="1" parent="1" source="_YnTIn_lLOJTzUy0rTk--124" target="82Lhvo7nVB6kF26-BJnR-8">
          <mxGeometry width="50" height="50" relative="1" as="geometry">
            <mxPoint x="320" y="970" as="sourcePoint" />
            <mxPoint x="370" y="920" as="targetPoint" />
          </mxGeometry>
        </mxCell>
        <mxCell id="_YnTIn_lLOJTzUy0rTk--127" value="cancelConfirmed()" style="edgeLabel;html=1;align=center;verticalAlign=middle;resizable=0;points=[];labelBorderColor=default;" vertex="1" connectable="0" parent="_YnTIn_lLOJTzUy0rTk--126">
          <mxGeometry x="0.3866" relative="1" as="geometry">
            <mxPoint x="29" as="offset" />
          </mxGeometry>
        </mxCell>
        <mxCell id="_YnTIn_lLOJTzUy0rTk--144" value="" style="endArrow=classic;html=1;rounded=0;entryX=0;entryY=0;entryDx=0;entryDy=0;exitX=1;exitY=0.5;exitDx=0;exitDy=0;" edge="1" parent="1" source="82Lhvo7nVB6kF26-BJnR-15" target="_YnTIn_lLOJTzUy0rTk--52">
          <mxGeometry width="50" height="50" relative="1" as="geometry">
            <mxPoint x="260" y="350" as="sourcePoint" />
            <mxPoint x="310" y="300" as="targetPoint" />
          </mxGeometry>
        </mxCell>
        <mxCell id="_YnTIn_lLOJTzUy0rTk--145" value="fetchPatientInfo(p)" style="edgeLabel;html=1;align=center;verticalAlign=middle;resizable=0;points=[];labelBorderColor=default;" vertex="1" connectable="0" parent="_YnTIn_lLOJTzUy0rTk--144">
          <mxGeometry x="-0.2769" y="-3" relative="1" as="geometry">
            <mxPoint x="17" as="offset" />
          </mxGeometry>
        </mxCell>
        <mxCell id="_YnTIn_lLOJTzUy0rTk--146" value="" style="endArrow=classic;html=1;rounded=0;entryX=1;entryY=0.75;entryDx=0;entryDy=0;exitX=0;exitY=0.75;exitDx=0;exitDy=0;" edge="1" parent="1" source="_YnTIn_lLOJTzUy0rTk--52" target="82Lhvo7nVB6kF26-BJnR-15">
          <mxGeometry width="50" height="50" relative="1" as="geometry">
            <mxPoint x="260" y="350" as="sourcePoint" />
            <mxPoint x="310" y="300" as="targetPoint" />
          </mxGeometry>
        </mxCell>
        <mxCell id="_YnTIn_lLOJTzUy0rTk--147" value="returnPatientInfo(p)" style="edgeLabel;html=1;align=center;verticalAlign=middle;resizable=0;points=[];labelBorderColor=default;" vertex="1" connectable="0" parent="_YnTIn_lLOJTzUy0rTk--146">
          <mxGeometry x="0.3077" y="5" relative="1" as="geometry">
            <mxPoint x="21" as="offset" />
          </mxGeometry>
        </mxCell>
        <mxCell id="_YnTIn_lLOJTzUy0rTk--148" value="ref: checkEDLoad" style="swimlane;whiteSpace=wrap;html=1;fillColor=#dae8fc;strokeColor=#6c8ebf;labelBackgroundColor=default;rounded=0;" vertex="1" parent="1">
          <mxGeometry x="420" y="140" width="200" height="70" as="geometry" />
        </mxCell>
        <mxCell id="_YnTIn_lLOJTzUy0rTk--149" value="" style="endArrow=classic;html=1;rounded=0;exitX=0;exitY=1;exitDx=0;exitDy=0;entryX=0;entryY=0.25;entryDx=0;entryDy=0;" edge="1" parent="1" target="_YnTIn_lLOJTzUy0rTk--155">
          <mxGeometry width="50" height="50" relative="1" as="geometry">
            <mxPoint x="420" y="220" as="sourcePoint" />
            <mxPoint x="810" y="220" as="targetPoint" />
          </mxGeometry>
        </mxCell>
        <mxCell id="_YnTIn_lLOJTzUy0rTk--150" value="sendERBookingRequest()" style="edgeLabel;html=1;align=center;verticalAlign=middle;resizable=0;points=[];labelBorderColor=default;" vertex="1" connectable="0" parent="_YnTIn_lLOJTzUy0rTk--149">
          <mxGeometry x="-0.42" y="1" relative="1" as="geometry">
            <mxPoint as="offset" />
          </mxGeometry>
        </mxCell>
        <mxCell id="_YnTIn_lLOJTzUy0rTk--151" value="" style="endArrow=classic;html=1;rounded=0;entryX=1;entryY=0.75;entryDx=0;entryDy=0;" edge="1" parent="1" target="_YnTIn_lLOJTzUy0rTk--153">
          <mxGeometry width="50" height="50" relative="1" as="geometry">
            <mxPoint x="820" y="240" as="sourcePoint" />
            <mxPoint x="430" y="240" as="targetPoint" />
          </mxGeometry>
        </mxCell>
        <mxCell id="_YnTIn_lLOJTzUy0rTk--152" value="confirmedBooking()" style="edgeLabel;html=1;align=center;verticalAlign=middle;resizable=0;points=[];labelBorderColor=default;" vertex="1" connectable="0" parent="_YnTIn_lLOJTzUy0rTk--151">
          <mxGeometry x="0.35" y="1" relative="1" as="geometry">
            <mxPoint as="offset" />
          </mxGeometry>
        </mxCell>
        <mxCell id="_YnTIn_lLOJTzUy0rTk--153" value="" style="rounded=0;whiteSpace=wrap;html=1;" vertex="1" parent="1">
          <mxGeometry x="415" y="210" width="10" height="40" as="geometry" />
        </mxCell>
        <mxCell id="_YnTIn_lLOJTzUy0rTk--156" value="" style="endArrow=none;dashed=1;html=1;rounded=0;entryX=0.5;entryY=1;entryDx=0;entryDy=0;" edge="1" parent="1" target="_YnTIn_lLOJTzUy0rTk--155">
          <mxGeometry width="50" height="50" relative="1" as="geometry">
            <mxPoint x="820" y="320" as="sourcePoint" />
            <mxPoint x="820" y="70" as="targetPoint" />
          </mxGeometry>
        </mxCell>
        <mxCell id="_YnTIn_lLOJTzUy0rTk--155" value="" style="rounded=0;whiteSpace=wrap;html=1;" vertex="1" parent="1">
          <mxGeometry x="815" y="210" width="10" height="40" as="geometry" />
        </mxCell>
        <mxCell id="_YnTIn_lLOJTzUy0rTk--159" value="" style="endArrow=classic;html=1;rounded=0;exitX=0;exitY=1;exitDx=0;exitDy=0;" edge="1" parent="1" source="_YnTIn_lLOJTzUy0rTk--153" target="_YnTIn_lLOJTzUy0rTk--162">
          <mxGeometry width="50" height="50" relative="1" as="geometry">
            <mxPoint x="260" y="380" as="sourcePoint" />
            <mxPoint x="270" y="250" as="targetPoint" />
          </mxGeometry>
        </mxCell>
        <mxCell id="_YnTIn_lLOJTzUy0rTk--160" value="bookingRequestResult()" style="edgeLabel;html=1;align=center;verticalAlign=middle;resizable=0;points=[];labelBorderColor=default;" vertex="1" connectable="0" parent="_YnTIn_lLOJTzUy0rTk--159">
          <mxGeometry x="0.1862" y="1" relative="1" as="geometry">
            <mxPoint x="11" y="9" as="offset" />
          </mxGeometry>
        </mxCell>
        <mxCell id="_YnTIn_lLOJTzUy0rTk--162" value="" style="rounded=0;whiteSpace=wrap;html=1;" vertex="1" parent="1">
          <mxGeometry x="244" y="220" width="10" height="60" as="geometry" />
        </mxCell>
        <mxCell id="_YnTIn_lLOJTzUy0rTk--163" value="displayBookingStatus()" style="endArrow=classic;html=1;rounded=0;exitX=0;exitY=0.75;exitDx=0;exitDy=0;entryX=1.3;entryY=0.213;entryDx=0;entryDy=0;entryPerimeter=0;labelBorderColor=default;" edge="1" parent="1" source="_YnTIn_lLOJTzUy0rTk--162" target="82Lhvo7nVB6kF26-BJnR-8">
          <mxGeometry width="50" height="50" relative="1" as="geometry">
            <mxPoint x="260" y="260" as="sourcePoint" />
            <mxPoint x="310" y="210" as="targetPoint" />
            <mxPoint as="offset" />
          </mxGeometry>
        </mxCell>
        <mxCell id="_YnTIn_lLOJTzUy0rTk--164" value="" style="endArrow=classic;html=1;rounded=0;" edge="1" parent="1">
          <mxGeometry width="50" height="50" relative="1" as="geometry">
            <mxPoint x="420" y="280" as="sourcePoint" />
            <mxPoint x="710" y="280" as="targetPoint" />
          </mxGeometry>
        </mxCell>
        <mxCell id="_YnTIn_lLOJTzUy0rTk--165" value="createNotiInstance(BookingReady)" style="edgeLabel;html=1;align=center;verticalAlign=middle;resizable=0;points=[];labelBorderColor=default;" vertex="1" connectable="0" parent="_YnTIn_lLOJTzUy0rTk--164">
          <mxGeometry x="0.0789" y="-1" relative="1" as="geometry">
            <mxPoint as="offset" />
          </mxGeometry>
        </mxCell>
        <mxCell id="_YnTIn_lLOJTzUy0rTk--166" value="" style="rounded=0;whiteSpace=wrap;html=1;" vertex="1" parent="1">
          <mxGeometry x="705" y="270" width="10" height="30" as="geometry" />
        </mxCell>
        <mxCell id="_YnTIn_lLOJTzUy0rTk--168" value="" style="endArrow=classic;html=1;rounded=0;entryX=1;entryY=0.25;entryDx=0;entryDy=0;exitX=0;exitY=1;exitDx=0;exitDy=0;" edge="1" parent="1" source="_YnTIn_lLOJTzUy0rTk--166" target="82Lhvo7nVB6kF26-BJnR-8">
          <mxGeometry width="50" height="50" relative="1" as="geometry">
            <mxPoint x="230" y="380" as="sourcePoint" />
            <mxPoint x="280" y="330" as="targetPoint" />
          </mxGeometry>
        </mxCell>
        <mxCell id="_YnTIn_lLOJTzUy0rTk--169" value="sendUserNoti(BookingReady)" style="edgeLabel;html=1;align=center;verticalAlign=middle;resizable=0;points=[];labelBorderColor=default;" vertex="1" connectable="0" parent="_YnTIn_lLOJTzUy0rTk--168">
          <mxGeometry x="0.3246" y="-2" relative="1" as="geometry">
            <mxPoint as="offset" />
          </mxGeometry>
        </mxCell>
        <mxCell id="_YnTIn_lLOJTzUy0rTk--172" value="" style="endArrow=none;dashed=1;html=1;rounded=0;entryX=0.5;entryY=1;entryDx=0;entryDy=0;exitX=0.25;exitY=0;exitDx=0;exitDy=0;" edge="1" parent="1" source="_YnTIn_lLOJTzUy0rTk--166" target="82Lhvo7nVB6kF26-BJnR-6">
          <mxGeometry width="50" height="50" relative="1" as="geometry">
            <mxPoint x="230" y="380" as="sourcePoint" />
            <mxPoint x="280" y="330" as="targetPoint" />
          </mxGeometry>
        </mxCell>
        <mxCell id="_YnTIn_lLOJTzUy0rTk--175" value="" style="endArrow=none;dashed=1;html=1;rounded=0;entryX=0.5;entryY=1;entryDx=0;entryDy=0;" edge="1" parent="1" target="_YnTIn_lLOJTzUy0rTk--104">
          <mxGeometry width="50" height="50" relative="1" as="geometry">
            <mxPoint x="820" y="990" as="sourcePoint" />
            <mxPoint x="280" y="690" as="targetPoint" />
          </mxGeometry>
        </mxCell>
        <mxCell id="_YnTIn_lLOJTzUy0rTk--176" value="" style="endArrow=classic;html=1;rounded=0;exitX=1;exitY=0;exitDx=0;exitDy=0;" edge="1" parent="1" source="82Lhvo7nVB6kF26-BJnR-74">
          <mxGeometry width="50" height="50" relative="1" as="geometry">
            <mxPoint x="230" y="600" as="sourcePoint" />
            <mxPoint x="820" y="440" as="targetPoint" />
          </mxGeometry>
        </mxCell>
        <mxCell id="_YnTIn_lLOJTzUy0rTk--177" value="cancelBookingRequest()" style="edgeLabel;html=1;align=center;verticalAlign=middle;resizable=0;points=[];labelBorderColor=default;" vertex="1" connectable="0" parent="_YnTIn_lLOJTzUy0rTk--176">
          <mxGeometry x="-0.5001" y="-3" relative="1" as="geometry">
            <mxPoint as="offset" />
          </mxGeometry>
        </mxCell>
        <mxCell id="_YnTIn_lLOJTzUy0rTk--178" value="" style="endArrow=classic;html=1;rounded=0;entryX=1;entryY=0.5;entryDx=0;entryDy=0;" edge="1" parent="1" target="82Lhvo7nVB6kF26-BJnR-74">
          <mxGeometry width="50" height="50" relative="1" as="geometry">
            <mxPoint x="820" y="470" as="sourcePoint" />
            <mxPoint x="280" y="550" as="targetPoint" />
          </mxGeometry>
        </mxCell>
        <mxCell id="_YnTIn_lLOJTzUy0rTk--179" value="confirmCancelRequest()" style="edgeLabel;html=1;align=center;verticalAlign=middle;resizable=0;points=[];labelBorderColor=default;" vertex="1" connectable="0" parent="_YnTIn_lLOJTzUy0rTk--178">
          <mxGeometry x="0.725" relative="1" as="geometry">
            <mxPoint x="42" as="offset" />
          </mxGeometry>
        </mxCell>
      </root>
    </mxGraphModel>
  </diagram>
</mxfile>
